<?xml version="1.0" encoding="utf-8"?>
<!-- Generator: Adobe Illustrator 24.0.0, SVG Export Plug-In . SVG Version: 6.00 Build 0)  -->
<svg version="1.1" id="Layer_1" xmlns="http://www.w3.org/2000/svg" xmlns:xlink="http://www.w3.org/1999/xlink" x="0px" y="0px"
	 viewBox="0 0 256 256" style="enable-background:new 0 0 256 256;" xml:space="preserve">
<style type="text/css">
	.st0{fill:#FFB69F;}
	.st1{fill:#72C2E9;}
	.st2{fill:#C2E5FF;}
	.st3{fill:#FC5D3D;}
	.st4{fill:#AFAFAF;}
	.st5{fill:#FFCBC3;}
	.st6{fill:#F0C020;}
	.st7{fill:#F8E5B0;}
	.st8{fill:#EFEFEF;}
	.st9{fill:#EEC21E;}
	.st10{fill:#FFFFFF;}
	.st11{fill:#F1BF21;}
	.st12{fill:#E8A61E;}
	.st13{fill:#7D7B79;}
	.st14{fill:#B34F33;}
	.st15{fill:#F8E5B2;}
	.st16{fill:#C5E5FE;}
	.st17{fill:#4C4944;}
	.st18{fill:#4BA5C8;}
	.st19{fill:#AFAEAF;}
	.st20{fill:#CF941C;}
	.st21{fill:#7C7B7A;}
	.st22{fill:#FAE0E1;}
	.st23{fill:#13BF6D;}
	.st24{fill:#76FFBB;}
	.st25{fill:#F2E1D7;}
	.st26{fill:#878787;}
	.st27{fill:#F9E5AF;}
	.st28{fill:#E8A61F;}
	.st29{fill:none;stroke:#000000;stroke-width:5;stroke-linecap:round;stroke-linejoin:round;stroke-miterlimit:10;}
	.st30{fill:#EFEFF0;}
	.st31{fill:#E8A61B;}
	.st32{fill:#EFEFEE;}
	.st33{fill:#4C4945;}
	.st34{fill:#EA8F7D;}
	.st35{fill:#D6C0B3;}
	.st36{fill:#EEC120;}
</style>
<g>
</g>
<g>
	<g>
		<polygon class="st6" points="99.74,37.565 76.365,37.565 88.052,8.064 		"/>
	</g>
	<g>
		<rect x="133.102" y="135.98" class="st1" width="96.898" height="111.956"/>
	</g>
	<g>
		<rect x="133.102" y="84.314" class="st1" width="96.898" height="34"/>
	</g>
	<g>
		<rect x="172.261" y="216.355" class="st6" width="18.579" height="31.581"/>
	</g>
	<g>
		<g>
			
				<rect x="148.811" y="215.742" transform="matrix(-1.836970e-16 1 -1 -1.836970e-16 376.8105 67.1895)" class="st6" width="12" height="12.516"/>
		</g>
		<g>
			
				<rect x="202.291" y="215.742" transform="matrix(-1.836970e-16 1 -1 -1.836970e-16 430.291 13.709)" class="st6" width="12" height="12.516"/>
		</g>
	</g>
	<g>
		
			<rect x="173.465" y="73.854" transform="matrix(-1.836970e-16 1 -1 -1.836970e-16 284.354 -78.7476)" class="st6" width="16.172" height="57.898"/>
	</g>
	<g>
		
			<rect x="173.465" y="129.289" transform="matrix(-1.836970e-16 1 -1 -1.836970e-16 339.7888 -23.3127)" class="st6" width="16.172" height="57.898"/>
	</g>
	<g>
		
			<rect x="173.465" y="160.551" transform="matrix(-1.836970e-16 1 -1 -1.836970e-16 371.0508 7.9492)" class="st6" width="16.172" height="57.898"/>
	</g>
	<g>
		<path class="st16" d="M160.551,242.5H143.25c-1.381,0-2.5-1.119-2.5-2.5s1.119-2.5,2.5-2.5h17.301c1.381,0,2.5,1.119,2.5,2.5
			S161.932,242.5,160.551,242.5z"/>
	</g>
	<g>
		<path class="st16" d="M221.75,242.5h-19.199c-1.381,0-2.5-1.119-2.5-2.5s1.119-2.5,2.5-2.5h16.699v-77.833
			c0-1.381,1.119-2.5,2.5-2.5s2.5,1.119,2.5,2.5V240C224.25,241.381,223.131,242.5,221.75,242.5z M221.75,152.167
			c-1.381,0-2.5-1.119-2.5-2.5v-5c0-1.381,1.119-2.5,2.5-2.5s2.5,1.119,2.5,2.5v5C224.25,151.047,223.131,152.167,221.75,152.167z"
			/>
	</g>
	<g>
		<path class="st16" d="M221.75,115.167c-1.381,0-2.5-1.119-2.5-2.5V95.31c0-1.381,1.119-2.5,2.5-2.5s2.5,1.119,2.5,2.5v17.356
			C224.25,114.047,223.131,115.167,221.75,115.167z"/>
	</g>
	<path d="M122.89,20.63c0.487-1.331-0.229-2.756-1.5-3.2c-1.27-0.46-2.75,0.24-3.2,1.5c-0.47,1.3,0.21,2.73,1.5,3.2
		C121.03,22.609,122.445,21.89,122.89,20.63z"/>
	<path d="M85.553,26.605v1.086c0,1.381,1.119,2.5,2.5,2.5s2.5-1.119,2.5-2.5v-1.086c0-1.381-1.119-2.5-2.5-2.5
		S85.553,25.224,85.553,26.605z"/>
	<path d="M148.553,230.5h12.516c1.381,0,2.5-1.119,2.5-2.5v-12c0-1.381-1.119-2.5-2.5-2.5h-12.516c-1.381,0-2.5,1.119-2.5,2.5v12
		C146.053,229.381,147.172,230.5,148.553,230.5z M151.053,218.5h7.516v7h-7.516V218.5z"/>
	<path d="M202.033,230.5h12.516c1.381,0,2.5-1.119,2.5-2.5v-12c0-1.381-1.119-2.5-2.5-2.5h-12.516c-1.381,0-2.5,1.119-2.5,2.5v12
		C199.533,229.381,200.652,230.5,202.033,230.5z M204.533,218.5h7.516v7h-7.516V218.5z"/>
	<path d="M232.5,135.98c0-3.303-5-3.307-5,0v41.96c0,1.37,1.12,2.5,2.5,2.5s2.5-1.13,2.5-2.5V135.98z"/>
	<circle cx="230" cy="187.94" r="2.5"/>
	<path d="M166.5,84.31c0-1.37-1.12-2.5-2.5-2.5s-2.5,1.13-2.5,2.5c0,1.38,1.12,2.51,2.5,2.51S166.5,85.69,166.5,84.31z"/>
	<path d="M154.02,81.82c-0.01-0.01-0.01-0.01-0.02-0.01h-20.9c-1.38,0-2.5,1.139-2.5,2.5v34.01c0,3.29,5,3.291,5,0v-31.5H154
		c1.38,0,2.5-1.13,2.5-2.51C156.5,82.94,155.39,81.82,154.02,81.82z"/>
	<path d="M247.804,245.437H232.5V197.94c0-1.38-1.12-2.5-2.5-2.5s-2.5,1.12-2.5,2.5v47.497h-34.16v-29.081
		c0-1.381-1.119-2.5-2.5-2.5h-18.578c-1.381,0-2.5,1.119-2.5,2.5v29.081H135.6V135.98c0-3.303-5-3.307-5,0v109.457h-28.36
		c0-6.173,0-175.875,0-181.997c5.945,0,63.652,0,76.812,0v18.37H174c-1.38,0-2.5,1.13-2.5,2.5c0,1.38,1.12,2.51,2.5,2.51h53.5v31.5
		c0,3.29,5,3.291,5,0V84.31c0-1.383-1.134-2.5-2.5-2.5h-45.949V63.44h9.188c1.381,0,2.5-1.119,2.5-2.5V37.565
		c0-1.39-1.139-2.5-2.5-2.5h-22.931L130.8,20.82c-1.28-0.46-2.75,0.24-3.2,1.5c-0.47,1.3,0.21,2.74,1.5,3.2l26.454,9.545
		c-6.356,0-47.36,0-54.116,0l-9.021-22.771l17.873,6.446c1.27,0.46,2.74-0.24,3.2-1.5c0.469-1.344-0.237-2.756-1.511-3.2
		l-23.08-8.33c-0.651-0.234-1.379-0.175-1.97,0.12L28.49,35.33c-0.79,0.399-1.374,1.255-1.374,2.235V60.94c0,1.436,1.19,2.5,2.5,2.5
		c11.236,0,37.103,0,44.249,0c0,2.664,0,179.17,0,181.997H8.196c-1.381,0-2.5,1.119-2.5,2.5s1.119,2.5,2.5,2.5
		c1.708,0,236.039,0,239.607,0c1.381,0,2.5-1.119,2.5-2.5S249.185,245.437,247.804,245.437z M167.363,58.44h-14.839l14.839-14.84
		V58.44z M172.363,40.065h14.84l-14.84,14.84V40.065z M148.989,54.905v-14.84h14.839L148.989,54.905z M143.989,58.44h-14.84
		l14.84-14.84V58.44z M125.614,54.905v-14.84h14.84L125.614,54.905z M120.614,58.44h-14.84l14.84-14.84V58.44z M78.865,86.814
		h14.839l-14.839,14.839V86.814z M97.239,198.688H82.4l14.839-14.84V198.688z M97.239,175.313H82.4l14.839-14.839V175.313z
		 M97.239,151.938H82.4l14.839-14.839V151.938z M97.239,128.563H82.4l14.839-14.839V128.563z M97.239,105.189H82.4L97.239,90.35
		V105.189z M78.865,110.189h14.839l-14.839,14.839V110.189z M78.865,133.563h14.839l-14.839,14.839V133.563z M78.865,156.938h14.839
		l-14.839,14.839V156.938z M78.865,180.313h14.839l-14.839,14.84V180.313z M78.865,203.688h14.839l-14.839,14.839V203.688z
		 M97.239,207.223v14.839H82.4L97.239,207.223z M97.239,81.814H82.4l14.839-14.839V81.814z M97.239,58.44H82.4L97.239,43.6V58.44z
		 M102.239,54.905v-14.84h14.84L102.239,54.905z M78.865,54.905v-14.84h14.839L78.865,54.905z M74.667,35.065
		c-12.142,0-21.871,0-34.556,0l43.194-21.804L74.667,35.065z M32.116,40.065h14.839l-14.839,14.84V40.065z M50.49,43.6v14.84H35.651
		L50.49,43.6z M55.49,40.065h14.84l-14.84,14.84V40.065z M73.865,43.6v14.84h-14.84L73.865,43.6z M93.704,63.44L78.865,78.279V63.44
		H93.704z M78.865,227.062h14.839l-14.839,14.839V227.062z M175.898,58.44l14.84-14.84v14.84H175.898z M80.045,35.065l8.008-20.213
		l8.007,20.213H80.045z M82.4,245.437l14.839-14.839v14.839H82.4z M174.762,245.437v-26.581h13.578v26.581H174.762z"/>
	<path d="M150.102,94.717v16.172c0,1.381,1.119,2.5,2.5,2.5H210.5c1.381,0,2.5-1.119,2.5-2.5V94.717c0-1.381-1.119-2.5-2.5-2.5
		h-57.898C151.221,92.217,150.102,93.336,150.102,94.717z M155.102,97.217H208v11.172h-52.898V97.217z"/>
	<path d="M210.5,147.652h-57.898c-1.381,0-2.5,1.119-2.5,2.5v16.172c0,1.381,1.119,2.5,2.5,2.5H210.5c1.381,0,2.5-1.119,2.5-2.5
		v-16.172C213,148.771,211.881,147.652,210.5,147.652z M208,163.824h-52.898v-11.172H208V163.824z"/>
	<path d="M213,197.586v-16.172c0-1.381-1.119-2.5-2.5-2.5h-57.898c-1.381,0-2.5,1.119-2.5,2.5v16.172c0,1.381,1.119,2.5,2.5,2.5
		H210.5C211.881,200.086,213,198.967,213,197.586z M208,195.086h-52.898v-11.172H208V195.086z"/>
</g>
</svg>
