<?xml version="1.0" encoding="iso-8859-1"?>
<!-- Generator: Adobe Illustrator 22.0.1, SVG Export Plug-In . SVG Version: 6.00 Build 0)  -->
<svg version="1.1" xmlns="http://www.w3.org/2000/svg" xmlns:xlink="http://www.w3.org/1999/xlink" x="0px" y="0px"
	 viewBox="0 0 128 128" style="enable-background:new 0 0 128 128;" xml:space="preserve">
<g id="_x31_1">
	<path style="fill:#232323;" d="M89.538,14.386L78.93,3.803C73.84-1.276,65.519-1.266,60.441,3.824h0
		c-5.079,5.091-5.069,13.411,0.022,18.49l1.877,1.873L21.566,62.362c-1.806,1.339-2.995,3.365-3.275,5.603
		c-0.281,2.242,0.373,4.502,1.799,6.247l34.244,52.699l5.533-3.596l-34.355-52.87l-0.28-0.371c-0.422-0.485-0.428-1.015-0.394-1.289
		c0.035-0.274,0.172-0.789,0.701-1.153l41.474-38.785l4.058,4.049c1.041,1.039,2.742,1.037,3.781-0.004l14.691-14.726
		C90.581,17.126,90.579,15.424,89.538,14.386z"/>
	<path style="fill:#0988CE;" d="M117.469,14.292L75.074,56.787c-1.038,1.041-2.739,1.043-3.779,0.004l0,0
		C60.63,46.151,60.609,28.719,71.25,18.053l7.478-7.495c10.64-10.665,28.072-10.686,38.737-0.045l0,0
		C118.505,11.551,118.507,13.252,117.469,14.292z"/>
	<path style="fill:#7D9091;" d="M14.152,128L14.152,128c0-10.434,8.536-14.021,18.97-14.021h47.954
		c10.433,0,18.97,3.588,18.97,14.021v0H14.152z"/>
	<circle style="fill:#B94219;" cx="21.526" cy="68.066" r="11.772"/>
</g>
<g id="Layer_1">
</g>
</svg>
